<?xml version="1.0" encoding="UTF-8"?>
<svg
        xmlns="http://www.w3.org/2000/svg"
        xmlns:xlink="http://www.w3.org/1999/xlink"
        viewBox="0 0 256 256"
        preserveAspectRatio="xMidYMid">
    
    <g class="pielayer">
    
        <g stroke-linejoin="round" class="trace" style="opacity: 1;">
            <g class="pie">
                
                <g class="slice">
                    <path class="surface" d="M128.000000,0.000000a128.000000,128.000000 0 0 1 43.213655,7.515229l-21.606828,60.242385a64.000000,64.000000 0 0 0 -21.606828,-3.757615Z" fill="#f03b20" style="pointer-events: all; stroke-width: ; stroke: #fff; stroke-opacity: 1;" />
                </g>
                    
                
                <g class="slice">
                    <path class="surface" d="M171.213655,7.515229a128.000000,128.000000 0 0 1 30.874438,16.105872l-37.044047,52.189449a64.000000,64.000000 0 0 0 -15.437219,-8.052936Z" fill="#feb24c" style="pointer-events: all; stroke-width: ; stroke: #fff; stroke-opacity: 1;" />
                </g>
                    
                
                <g class="slice">
                    <path class="surface" d="M202.088093,23.621102a128.000000,128.000000 0 0 1 30.411016,30.460456l-52.249555,36.959221a64.000000,64.000000 0 0 0 -15.205508,-15.230228Z" fill="#ffffb2" style="pointer-events: all; stroke-width: ; stroke: #fff; stroke-opacity: 1;" />
                </g>
                    
                
                <g class="slice">
                    <path class="surface" d="M232.499109,54.081557a128.000000,128.000000 0 1 1 -104.499109,-54.081557l0.000000,64.000000a64.000000,64.000000 0 1 0 52.249555,27.040779Z" fill="#1a9641" style="pointer-events: all; stroke-width: ; stroke: #fff; stroke-opacity: 1;" />
                </g>
                    
                    <text class="slice-value" text-anchor="middle" alignment-baseline="middle" x="83.87590149549789" y="205.25880559311744">
                        8,200
                    </text>
                    <text class="slice-percentage" text-anchor="middle" alignment-baseline="middle" x="83.87590149549789" y="221.25880559311744">
                        84.80%
                    </text>
                    
                
            </g>
        </g>
        <g class="total-text">
            <text class="total-value" text-anchor="middle" x="128" y="108">
                9,670
            </text>
            <text class="total-value-header" text-anchor="middle" x="128" y="128">
                Total
            </text>
            <text class="total-value-header" text-anchor="middle" x="128" y="148">
                Exposed
            </text>
        </g>
    </g>
</svg>